<?xml version="1.0" standalone="no"?>
<!DOCTYPE svg PUBLIC "-//W3C//DTD SVG 20010904//EN"
 "http://www.w3.org/TR/2001/REC-SVG-20010904/DTD/svg10.dtd">
<svg version="1.0" xmlns="http://www.w3.org/2000/svg"
 width="1133.000000pt" height="1280.000000pt" viewBox="0 0 1133.000000 1280.000000"
 preserveAspectRatio="xMidYMid meet">
<metadata>
Created by potrace 1.15, written by Peter Selinger 2001-2017
</metadata>
<g transform="translate(0.000000,1280.000000) scale(0.100000,-0.100000)"
fill="#000000" stroke="none">
<path d="M2141 12778 c-5 -13 -7 -27 -5 -33 2 -5 8 -68 14 -140 17 -210 31
-305 57 -384 48 -147 136 -258 327 -411 l106 -85 -37 -32 c-59 -50 -168 -109
-283 -152 -241 -91 -358 -106 -725 -97 -385 9 -699 34 -950 76 -146 24 -195
25 -195 6 0 -35 193 -72 601 -116 154 -16 281 -30 284 -30 3 0 5 -4 5 -9 0 -5
-19 -12 -42 -15 -24 -4 -110 -18 -193 -31 -255 -41 -586 -139 -883 -263 -161
-67 -230 -108 -213 -125 14 -14 31 -8 396 123 520 187 541 192 1030 250 393
46 621 80 981 146 104 19 221 35 259 37 86 3 90 -6 46 -100 -62 -131 -169
-260 -321 -386 -124 -103 -140 -127 -82 -127 99 0 312 210 447 441 l50 84 7
-145 c4 -80 16 -190 27 -245 12 -55 21 -119 21 -143 0 -40 -3 -45 -60 -89 -33
-25 -60 -50 -60 -54 0 -19 43 -19 87 1 65 28 113 76 113 112 0 15 -11 72 -25
125 -49 187 -44 426 11 535 30 59 78 114 117 135 17 8 86 20 162 27 79 8 145
19 165 29 44 22 50 21 50 -6 0 -41 31 -116 61 -149 27 -28 32 -30 46 -16 14
15 13 22 -7 83 -21 63 -21 67 -4 86 21 24 82 25 172 4 88 -21 137 -49 173 -98
33 -46 54 -61 69 -52 36 22 -23 125 -92 161 -15 8 -60 21 -100 29 -102 22
-108 24 -108 45 0 24 54 70 130 111 67 36 78 49 100 128 23 83 42 93 209 105
77 6 143 14 147 18 4 4 -10 15 -32 24 -61 25 -236 15 -335 -19 -165 -58 -174
-15 -19 93 58 40 96 77 88 85 -8 8 -75 -18 -183 -72 -55 -28 -122 -58 -150
-67 -53 -18 -80 -38 -134 -101 -45 -53 -108 -95 -141 -95 -37 0 -141 -33 -223
-70 -37 -16 -72 -30 -79 -30 -7 0 -26 21 -43 48 -137 221 -248 389 -297 455
-115 151 -297 314 -422 377 -72 36 -104 38 -115 8z"/>
<path d="M4523 11299 c-128 -22 -249 -95 -400 -242 -213 -207 -273 -349 -273
-646 0 -113 6 -174 36 -347 32 -179 37 -233 38 -374 1 -161 0 -168 -33 -274
-26 -83 -32 -115 -25 -135 17 -48 106 -54 123 -8 16 42 41 307 41 430 0 95 -8
167 -36 322 -66 375 -58 558 33 745 41 85 58 107 157 205 66 65 134 122 166
140 49 26 65 30 140 30 74 0 91 -3 135 -28 69 -38 242 -185 352 -299 148 -155
181 -243 170 -464 -10 -187 -50 -450 -108 -707 -16 -71 -40 -197 -54 -280 -14
-84 -30 -167 -36 -184 -22 -68 -168 -165 -288 -193 -121 -28 -327 3 -636 95
-209 62 -300 100 -453 188 -202 117 -284 148 -438 168 -170 21 -290 -9 -326
-81 -25 -49 -23 -139 3 -195 12 -24 50 -72 85 -105 107 -100 257 -160 584
-235 82 -19 120 -34 120 -47 0 -15 -137 -8 -240 12 -164 31 -170 11 -37 -122
68 -68 121 -135 192 -243 54 -83 128 -188 164 -235 61 -79 327 -357 816 -852
226 -229 232 -239 216 -338 -14 -79 -34 -129 -105 -265 -85 -162 -276 -483
-342 -575 -175 -245 -378 -639 -420 -815 -20 -88 -19 -261 4 -305 25 -50 54
-50 125 0 75 52 118 74 192 95 79 22 111 40 163 87 55 51 77 58 197 65 100 6
100 6 135 44 19 20 68 58 107 83 85 53 126 105 153 192 23 76 40 229 40 368 0
184 25 330 76 454 34 80 50 81 108 2 59 -79 201 -320 264 -445 132 -262 206
-607 219 -1010 6 -211 -3 -333 -37 -500 -30 -148 -40 -237 -55 -505 -11 -196
-20 -279 -39 -360 -63 -268 -169 -555 -326 -877 -114 -235 -185 -359 -287
-500 -40 -56 -84 -122 -98 -148 -85 -161 -557 -607 -800 -755 -65 -40 -84 -65
-63 -85 34 -33 351 -122 511 -144 46 -7 262 -11 515 -11 513 -1 777 -12 842
-35 25 -9 82 -19 126 -22 192 -13 378 57 670 249 71 47 147 94 169 105 47 24
61 21 190 -44 136 -69 232 -91 426 -100 176 -7 265 3 559 63 118 24 231 44
251 44 72 0 132 29 215 102 104 93 129 108 169 101 62 -10 112 34 130 114 7
36 40 64 95 82 71 23 96 46 109 97 24 95 95 190 170 229 26 13 88 35 140 49
128 35 137 42 146 113 12 101 46 142 160 200 91 46 120 73 162 158 54 106 81
134 199 205 133 80 204 144 205 186 1 63 21 98 73 124 27 14 58 37 69 52 17
23 18 32 9 68 -5 22 -25 65 -43 95 -53 88 -554 679 -679 800 -33 33 -69 78
-79 100 -10 22 -46 67 -80 100 -51 50 -64 58 -79 49 -9 -6 -45 -78 -79 -160
-83 -200 -172 -375 -296 -585 -294 -498 -626 -946 -828 -1119 -35 -30 -109
-96 -164 -146 -159 -144 -159 -133 1 36 118 126 294 355 454 595 122 182 478
782 540 910 32 66 95 190 140 275 198 380 217 438 369 1165 103 491 111 546
111 741 0 573 -203 1271 -500 1715 -112 168 -317 433 -566 729 -232 279 -704
702 -1035 930 -40 28 -76 50 -81 50 -10 0 -43 -65 -59 -118 -7 -23 -16 -39
-20 -35 -5 5 -17 52 -28 105 -44 210 -102 312 -261 455 -68 61 -451 379 -540
449 -276 216 -932 584 -1040 584 -28 0 -25 -19 20 -114 41 -85 73 -204 85
-311 l7 -60 -77 155 c-92 186 -165 297 -263 402 -196 208 -437 312 -639 277z
m2253 -1400 c49 -25 109 -80 129 -120 39 -75 26 -162 -31 -206 -33 -24 -37
-25 -77 -14 -72 22 -157 73 -197 119 -43 48 -80 117 -80 148 0 30 41 64 102
85 59 21 91 19 154 -12z m-269 -1989 c-9 -103 -103 -283 -198 -380 -35 -36
-82 -70 -125 -91 -65 -32 -75 -34 -174 -34 -87 0 -113 4 -152 22 -48 22 -61
46 -32 57 9 3 58 6 110 6 76 0 103 4 136 21 59 30 193 168 282 289 148 204
163 214 153 110z m514 -197 c-29 -235 -152 -427 -332 -517 -127 -64 -146 -44
-36 37 40 30 90 72 111 93 55 58 118 195 193 424 l68 205 3 -80 c2 -44 -2
-117 -7 -162z m-641 -1118 c0 -39 56 -245 95 -350 59 -158 125 -297 222 -470
104 -186 140 -264 155 -338 13 -63 8 -84 -26 -97 -25 -9 -29 -18 -41 -95 -9
-54 -64 -107 -135 -130 -74 -24 -107 -50 -173 -138 -94 -125 -152 -166 -247
-174 -85 -8 -111 9 -159 110 -22 45 -45 105 -52 132 -6 28 -27 103 -45 167
-55 189 -65 251 -65 398 0 96 6 162 20 226 20 96 103 305 129 326 13 11 14 10
9 -7 -44 -139 -62 -337 -48 -522 29 -374 109 -666 193 -709 57 -29 128 17 187
121 34 61 93 115 159 149 100 51 158 148 150 253 -3 48 -21 93 -102 263 -121
251 -178 386 -212 499 -23 74 -27 110 -31 255 -4 123 -2 167 6 162 6 -4 11
-18 11 -31z"/>
<path d="M3666 3568 c-119 -16 -268 -66 -338 -115 -32 -22 -54 -27 -155 -35
-232 -18 -369 -55 -464 -124 -41 -30 -230 -112 -430 -187 l-66 -25 -74 29
c-133 53 -239 79 -359 89 -85 7 -138 18 -205 41 l-90 32 -330 8 c-420 10 -667
34 -815 81 -114 35 -241 24 -275 -25 -42 -60 0 -161 113 -277 321 -327 629
-613 987 -917 379 -321 483 -445 500 -599 12 -106 27 -113 248 -125 315 -16
327 -18 563 -99 166 -57 319 -96 424 -110 87 -10 572 5 608 20 28 12 29 52 2
90 -11 16 -61 61 -110 100 -229 183 -413 441 -456 641 -15 69 -15 79 -1 130
22 74 78 158 213 319 123 148 210 235 475 478 184 167 254 249 297 341 49 106
30 172 -61 215 -60 28 -118 35 -201 24z"/>
<path d="M2522 1025 c15 -79 310 -126 988 -160 381 -19 579 -34 601 -46 27
-14 225 -11 356 6 242 32 433 87 441 128 7 36 -52 33 -328 -19 -103 -19 -167
-16 -506 27 -287 35 -418 36 -857 3 -236 -17 -251 -17 -310 -1 -80 23 -267 62
-335 72 -48 6 -54 5 -50 -10z"/>
<path d="M6005 854 c-33 -2 -253 -13 -489 -24 -236 -12 -436 -25 -444 -29 -33
-19 24 -24 347 -32 454 -11 544 -16 611 -40 56 -20 290 -73 460 -106 119 -22
361 -24 724 -4 285 15 772 10 936 -9 52 -7 133 -25 179 -41 46 -16 86 -29 88
-29 1 0 3 11 3 24 0 52 -90 92 -275 124 -212 37 -355 43 -885 40 l-505 -3
-100 26 c-55 15 -156 42 -225 61 -129 37 -273 51 -425 42z"/>
<path d="M9400 820 c-80 -16 -200 -33 -267 -39 -135 -11 -175 -23 -151 -47 12
-12 75 -15 359 -18 321 -2 351 -4 444 -26 90 -21 124 -24 335 -24 322 -1 1148
21 1184 31 23 7 26 11 14 20 -22 19 -181 62 -326 88 -175 33 -295 32 -467 -1
-293 -56 -410 -54 -730 11 -93 19 -188 34 -210 34 -22 0 -105 -14 -185 -29z"/>
<path d="M2160 828 c0 -33 193 -130 335 -168 88 -24 283 -45 590 -65 410 -26
543 -44 745 -96 194 -50 237 -52 930 -43 730 10 859 7 918 -24 72 -37 162 -41
162 -7 0 18 -112 98 -181 129 -118 52 -192 61 -484 60 -175 0 -341 -6 -470
-18 -245 -22 -318 -18 -680 36 l-270 40 -555 8 c-658 9 -640 6 -935 134 -65
28 -105 33 -105 14z"/>
<path d="M5236 221 c-24 -38 218 -144 434 -191 137 -30 216 -32 580 -20 452
16 755 16 1023 0 120 -7 220 -10 223 -7 8 8 -169 62 -281 86 -245 53 -534 60
-875 22 -172 -20 -238 -22 -410 -18 -229 6 -280 14 -490 82 -160 51 -196 60
-204 46z"/>
</g>
</svg>
